<?xml version="1.0" standalone="no"?>
<!DOCTYPE svg PUBLIC "-//W3C//DTD SVG 20010904//EN"
 "http://www.w3.org/TR/2001/REC-SVG-20010904/DTD/svg10.dtd">
<svg version="1.0" xmlns="http://www.w3.org/2000/svg"
 width="398.000000pt" height="398.000000pt" viewBox="0 0 398.000000 398.000000"
 preserveAspectRatio="xMidYMid meet">
<metadata>
Created by potrace 1.14, written by Peter Selinger 2001-2017
</metadata>
<g transform="translate(0.000000,398.000000) scale(0.100000,-0.100000)"
fill="#000000" stroke="none">
<path d="M542 3768 c-52 -210 -51 -206 -58 -242 -2 -16 -7 -32 -9 -36 -2 -3
-6 -17 -9 -31 -2 -13 -21 -91 -41 -173 -35 -142 -36 -150 -18 -160 10 -5 27
-11 38 -13 11 -1 36 -7 55 -12 78 -21 116 -30 146 -35 17 -3 49 -12 72 -20 23
-8 42 -13 42 -11 0 2 29 -5 65 -15 36 -10 65 -17 65 -15 0 3 11 0 25 -5 27
-10 71 -21 93 -22 6 -1 12 -4 12 -7 0 -3 10 -6 23 -7 19 -1 41 -5 97 -19 8 -2
15 -4 15 -5 0 -1 10 -3 23 -6 12 -2 22 0 22 5 0 4 -24 47 -54 94 -30 47 -51
88 -48 91 3 3 1 6 -5 6 -5 0 -18 18 -28 40 -10 22 -21 40 -25 40 -8 0 -35 59
-29 63 27 20 144 68 163 66 5 0 12 3 15 9 5 8 130 46 191 58 14 3 36 7 50 10
39 8 130 17 180 18 l45 1 1 -70 c1 -38 2 -76 3 -82 1 -8 17 -13 46 -13 l45 0
0 85 0 85 68 -6 c92 -7 132 -12 167 -19 17 -4 39 -8 50 -9 11 -2 27 -6 35 -9
8 -4 41 -13 72 -21 31 -8 65 -19 75 -24 10 -6 23 -11 28 -12 40 -9 215 -91
215 -101 0 -4 11 -10 25 -13 14 -4 25 -11 25 -16 0 -6 4 -10 10 -10 9 0 93
-54 115 -75 7 -5 26 -21 44 -35 39 -30 171 -163 203 -205 12 -16 27 -35 33
-42 5 -7 16 -19 23 -27 6 -8 12 -20 12 -25 0 -6 8 -15 18 -20 9 -6 13 -11 7
-11 -6 0 -5 -3 1 -8 25 -16 128 -224 164 -332 39 -117 80 -318 80 -395 l0 -43
-76 1 c-45 0 -79 -5 -83 -11 -6 -10 -6 -23 -2 -77 1 -6 34 -9 82 -8 l81 2 -6
-100 c-3 -55 -8 -104 -10 -108 -3 -4 -8 -30 -12 -57 -3 -27 -12 -67 -20 -88
-7 -22 -11 -43 -8 -48 3 -4 1 -8 -3 -8 -5 0 -9 -9 -10 -19 -2 -21 -71 -199
-84 -216 -4 -5 -24 -41 -44 -80 -21 -38 -40 -72 -44 -75 -3 -3 -19 -25 -35
-49 -33 -51 -39 -58 -147 -174 -45 -48 -107 -106 -138 -129 -31 -24 -58 -45
-61 -48 -14 -16 -173 -111 -225 -134 -110 -51 -188 -82 -227 -90 -13 -3 -49
-12 -81 -21 -155 -42 -453 -53 -622 -22 -44 8 -83 13 -87 11 -3 -2 -8 -1 -10
3 -2 7 -68 28 -148 48 -8 2 -17 4 -20 5 -3 1 -8 2 -13 1 -4 0 -7 4 -7 9 0 5
-3 9 -7 8 -16 -3 -154 60 -215 99 -21 13 -40 23 -42 23 -8 0 -86 -108 -86
-119 0 -5 -3 -11 -8 -13 -9 -4 -94 -116 -107 -143 -9 -17 -5 -23 23 -42 18
-13 37 -23 42 -23 6 0 10 -5 10 -12 0 -6 3 -8 7 -5 3 4 13 1 22 -6 48 -40 351
-160 431 -171 9 -1 20 -5 25 -8 6 -3 26 -9 45 -12 62 -11 84 -15 110 -21 69
-17 414 -27 443 -13 11 6 17 5 17 -2 0 -6 4 -9 9 -5 9 5 54 13 116 20 11 1 20
3 20 4 0 1 11 4 25 6 14 2 37 6 53 9 15 3 38 8 52 11 13 3 36 10 50 15 14 5
25 7 25 4 0 -4 7 -1 15 6 8 7 15 10 15 7 0 -14 271 95 304 122 16 13 18 14 12
1 -7 -13 -6 -13 6 0 7 8 33 25 58 38 44 22 73 39 94 55 145 105 188 138 226
172 195 176 350 382 461 613 50 106 117 291 122 341 2 15 6 31 9 36 3 6 8 26
12 45 3 19 8 44 10 55 5 25 16 107 22 160 5 45 5 284 0 330 -7 62 -19 151 -23
170 -8 37 -15 70 -17 80 -2 6 -6 24 -10 40 -4 17 -10 37 -13 45 -3 8 -7 25 -9
36 -2 20 -34 106 -72 199 -15 37 -89 182 -117 230 -38 66 -51 85 -57 85 -5 0
-8 5 -8 10 0 11 -52 81 -118 160 -47 56 -194 202 -234 232 -17 13 -44 35 -62
49 -45 38 -153 109 -165 109 -5 0 -11 4 -13 9 -12 33 -476 226 -496 207 -3 -3
-10 -2 -16 3 -12 10 -77 23 -176 37 -55 7 -64 9 -77 17 -6 4 -15 3 -18 -3 -4
-7 -11 -8 -18 -2 -14 11 -297 10 -314 -1 -6 -4 -14 -3 -18 3 -4 6 -10 8 -14 6
-11 -7 -59 -16 -120 -21 -29 -3 -59 -8 -65 -12 -6 -4 -26 -8 -45 -10 -18 -1
-40 -8 -47 -14 -8 -6 -14 -9 -14 -6 0 15 -241 -72 -349 -126 l-63 -32 -19 25
c-10 14 -23 30 -29 37 -5 7 -10 14 -10 17 0 11 -163 276 -169 276 -4 0 -26
-78 -49 -172z"/>
<path d="M892 2720 c-179 -43 -322 -174 -372 -339 -24 -80 -38 -152 -32 -169
3 -9 41 -12 142 -12 l138 0 6 43 c9 57 47 136 82 169 80 73 234 69 315 -8 70
-67 77 -198 18 -321 -18 -38 -36 -69 -41 -71 -4 -2 -8 -8 -8 -14 0 -22 -111
-147 -315 -354 -93 -94 -218 -221 -276 -281 l-106 -109 2 -64 c1 -36 3 -67 4
-70 2 -9 91 -5 91 4 0 5 6 4 13 -2 7 -6 18 -7 25 -3 7 4 33 5 57 1 25 -4 47
-5 50 -2 6 7 65 8 65 2 0 -3 29 -5 65 -5 36 0 65 4 65 8 0 5 5 5 11 1 16 -9
129 -10 129 -1 0 5 5 5 11 1 15 -9 109 -11 109 -2 0 4 14 3 30 -2 21 -6 30 -5
30 3 0 8 3 8 11 0 8 -8 20 -8 35 -3 13 5 24 6 24 1 0 -6 34 -7 50 -1 3 1 10 1
15 0 21 -5 85 -3 90 2 3 3 22 2 41 -2 18 -4 34 -4 34 0 0 5 8 6 18 4 16 -5 17
5 16 123 -1 70 -2 131 -3 136 0 4 -127 7 -281 7 -154 0 -280 4 -280 8 0 4 28
37 63 73 169 178 215 228 247 268 19 24 40 49 45 55 24 27 75 105 75 114 0 6
4 12 8 14 9 3 62 112 80 163 29 84 45 210 29 232 -5 7 -7 22 -4 33 3 11 1 20
-4 20 -5 0 -8 3 -8 8 1 4 0 10 -1 15 -1 4 -4 12 -5 17 -1 6 -4 12 -5 15 -3 6
-5 12 -15 43 -4 12 -11 22 -16 22 -5 0 -9 5 -9 11 0 19 -91 129 -107 129 -3 0
-18 11 -34 24 -34 29 -130 67 -176 69 -18 1 -33 4 -33 7 0 12 -146 4 -208 -10z"/>
<path d="M2372 2731 c-11 -8 -102 -140 -102 -148 0 -4 -7 -13 -15 -22 -9 -9
-27 -34 -41 -55 -25 -39 -244 -364 -414 -616 -51 -74 -97 -142 -104 -150 -8
-9 -13 -40 -12 -80 1 -36 -2 -71 -7 -77 -6 -8 -6 -13 0 -13 5 0 8 -24 7 -52
-1 -29 2 -57 6 -63 5 -6 132 -10 344 -10 223 1 337 -3 339 -10 2 -5 3 -79 3
-163 l-1 -152 25 -1 c88 -2 253 1 258 6 3 3 6 76 6 163 l1 157 60 0 c33 0 65
3 70 7 11 7 13 236 2 254 -4 6 -31 10 -66 9 -36 -1 -62 2 -64 9 -2 6 -3 235
-3 509 1 273 -1 498 -4 498 -16 5 -281 4 -288 0z m-2 -754 l0 -253 -175 -1
c-103 0 -175 4 -175 9 0 8 115 183 130 198 3 3 37 52 75 110 39 58 72 107 75
110 3 3 16 22 30 42 14 21 28 38 33 38 4 0 7 -114 7 -253z"/>
<path d="M605 714 c-44 -42 -101 -96 -127 -120 -27 -25 -48 -51 -48 -57 1 -14
102 -97 118 -97 8 0 72 81 154 195 4 6 21 26 37 46 l30 36 -27 23 c-15 13 -34
29 -42 36 -13 11 -27 1 -95 -62z"/>
</g>
</svg>
