<svg height="682.667" viewBox="0 0 512 512" width="682.667" xmlns="http://www.w3.org/2000/svg"><path d="m128.6 55.1c-.5 1.4-16 64.4-17 69.1-.3 1.2-1.2 5.2-2.1 8.7-.8 3.5-1.3 6.6-1.1 6.8.5.5 43 11.1 55.2 13.8 4 .9 23.1 5.5 26.2 6.4 2.3.7 3.2.6 3.2-.2 0-.7-3.6-7-8-14.1-4.4-7-8-13-8-13.3s-.9-1.8-2.1-3.4c-1.1-1.6-1.7-3.4-1.4-3.9 1.2-1.9 21.6-10.3 28-11.6.6-.1 3.7-.9 7-1.7 6.7-1.7 16.8-3.3 26.3-4.2l6.2-.6v18.2l4.8-.3 4.7-.3.3-8.8.3-8.7 6.7.5c14.9 1.3 37.6 6.2 41 8.8.6.5 1.2.7 1.2.4 0-.8 15.9 6.1 22.9 10 6.3 3.5 22.2 14.3 24.6 16.6.6.7 3.3 3 5.9 5.2 3.8 3.1 14 14.2 18.4 20 5 6.5 9.2 12.6 9.2 13.4 0 .5.4 1.1.8 1.3 1.3.5 10.8 19.7 13.7 27.8 2.7 7.7 5.8 18.7 6.9 25 .3 1.9.8 4.6 1.1 6s.8 6 1.2 10.2l.6 7.7-8.8.3-8.9.3.1 3.2c.1 1.8.2 4 .2 4.8.1 1.2 1.8 1.5 8.7 1.5h8.5l-.2 7.1c-.1 4-.6 9-1 11.3s-1 6.1-1.4 8.5c-1.6 11.2-9.8 34.2-16.2 45.4-1.8 3.3-3.3 6.1-3.3 6.3 0 .7-10 14.6-14.4 19.9-4.8 6-15.7 16.9-21 21-2.1 1.6-4.4 3.5-5 4.1-2.5 2.4-20.6 13.3-27.6 16.7-11.1 5.3-27.3 10.7-37 12.3-1.4.3-3 .6-3.7.9-5.1 1.8-34 2.6-46.3 1.3-20.7-2.1-47.9-11.3-64.7-21.8-1.8-1.1-2.4-1.2-3.7-.1-.9.8-1.6 1.9-1.6 2.6 0 .8-.3 1.5-.7 1.7-.9.3-18.3 24.4-18.3 25.2 0 .9 16.4 10.1 25.5 14.3 13.6 6.3 34 12.6 47.5 14.7 1.9.3 4.6.8 5.9 1 13.8 2.9 43.8 2.4 62-1 59.1-10.9 105.3-43.4 137.8-96.9 3.4-5.6 12.4-24.9 14.6-31.5 4.9-14.7 8.5-29.2 10.2-41.5 1.1-7.3 1.3-38.9.4-45-.4-3.3-1.1-7.8-1.4-10-.7-5.6-1.4-9.4-2.7-14-.5-2.2-1.2-4.8-1.4-5.9-.2-1-.8-3.3-1.4-5.1s-1.3-4.1-1.5-5.1c-.7-3-3.1-9.3-3.8-10-.4-.4-.7-1.4-.7-2.1 0-2.4-10.5-23.3-16.4-32.7-11.4-18-26.2-34.8-43.1-48.6-7-5.7-26.6-19-28.1-19-.4 0-1.5-.6-2.3-1.3-2.9-2.4-21.4-10.5-32.2-14.1-12.3-4.1-32.3-8.3-44.1-9.2-15.8-1.2-38.8-.5-48.2 1.6-2.3.4-5.9 1.1-8.1 1.5-11.5 1.7-29.6 7.6-44.5 14.6-5.7 2.6-10.5 4.7-10.6 4.6s-5.4-8.7-11.8-19.1c-6.6-10.9-11.8-18.3-12-17.5z"/><path d="m160.7 182.6c-21.3 4.9-37.2 22.1-41.1 44.3-.8 4.6-1.2 8.9-1 9.5.3.7 4 1 10.7.9 5.6-.1 12.1-.2 14.4-.2l4.2-.1.7-4.8c1-5.7.7-4.9 2.7-9.4 7.7-17.2 34.7-18.1 42.6-1.4 5.1 11 .8 27.9-10.8 42.6-6.5 8.1-17.4 19.5-60.3 63.1-4.9 4.9-8.8 9.7-8.9 10.6-.3 6-.1 11.4.5 12 1.2 1.2 113.6 1 113.7-.2.1-1.5.1-22.6 0-25.3l-.1-2.2h-29.5c-16.2 0-29.5-.4-29.5-.8 0-.5 3.3-4.3 7.3-8.4 24-25.1 27.1-28.6 35.1-40.8 5.8-8.8 12.3-21.8 13.2-26.5 2.9-15.1 2.8-21.1-.6-30.4-9.3-25.7-35.2-38.9-63.3-32.5zm153 1.6c-1.4 1.8-5.1 7.3-8.3 12.3-3.3 4.9-6.1 9.2-6.4 9.5s-6.4 9.3-13.6 20-19.5 28.9-27.4 40.5l-14.3 21-.1 13.4c-.1 8.4.3 13.9 1 14.5.7.8 12.4 1.1 36.2 1 19.4 0 35.3.2 35.3.5.1.3.3 7.8.4 16.6s.3 16.2.4 16.5c.2 1 29.1.5 29.2-.5.1-.6.2-8.2.3-17l.1-16h14.5v-3c.1-1.6.2-8.1.3-14.3l.2-11.2h-15v-107h-30.4zm2.3 76.3v26.5l-2.2.1c-5 .3-35 0-35.3-.3-.5-.6 35.7-52.8 36.6-52.8.5 0 .9 11.9.9 26.5zm-181.6 129.2c-2.7 2.5-8.9 8.4-13.9 13l-9 8.5 6 5.4c3.3 3 6.4 5.4 6.8 5.4 1 0 1.8-.9 14-16.9 4.8-6.3 8.7-12 8.7-12.5 0-.6-1.8-2.5-3.9-4.3l-3.8-3.1z"/></svg>