<svg version="1" xmlns="http://www.w3.org/2000/svg" width="789.333" height="789.333" viewBox="0 0 592.000000 592.000000"><path d="M124.5 23.1c-.2.8-.6 2.3-.8 3.4-.2 1.1-.9 3.8-1.5 6s-1.3 5.1-1.6 6.5c-.2 1.4-2 8.8-3.9 16.5-2 7.7-3.8 15.1-4.1 16.5-.3 1.4-2.2 9-4.1 17l-4 16c-.2.8-1.7 7.3-3.4 14.4-1.8 7.1-3 13-2.9 13.2.2.1 11.6 3 25.3 6.3 13.8 3.4 26.1 6.4 27.5 6.8 3.5.9 4.2 1 7 1.6 1.4.3 12.9 3.2 25.7 6.3 12.8 3.2 23.5 5.5 23.9 5.2.3-.4-5.3-10.3-12.5-22.2-7.2-11.8-13.1-22-13.1-22.5 0-2.5 23.8-12.2 40.3-16.6 12.8-3.4 29.6-6.2 39.2-6.5 9-.4 8.3-1.2 8.2 10.3 0 5.7.2 10.8.5 11.3.8 1.2 10.8 1 11.6-.4.4-.5.6-5.4.6-10.9-.1-5.7.3-10.1.9-10.4.5-.4 2.1-.5 3.6-.4 1.4.2 5.6.6 9.2.9 15.9 1.4 35.9 6 52.9 12.3 10.3 3.8 33.8 15.6 36.9 18.4 1 1 2.2 1.5 2.5 1.2.3-.4.6-.1.6.5 0 .7.5 1.2 1.1 1.2 1.4 0 20.9 15 20.9 16.1 0 .5.4.9.9.9.9 0 16 13.9 15.1 14-.3 0 2.3 3 5.7 6.7 3.5 3.7 6.3 7.3 6.3 8 0 .7.4 1.3.8 1.3 1.4 0 14.6 20.9 19.9 31.5 6.8 13.5 11.9 27.3 15.8 43.1 3.2 12.6 4 17.5 5.1 30.9.3 3.2.6 6.2.6 6.5.3 3.6-.1 3.7-10.8 3.6-7.4-.1-10.8.3-11.1 1.1-.3.7-.5 3.6-.6 6.5l-.2 5.3 11-.1c6.4-.1 11.3.3 11.6.9.4.5.5 2.1.4 3.6-.2 1.4-.6 6.2-.9 10.6-.3 4.4-.8 9.1-1 10.5-.3 1.4-.7 4.1-1 6-2.2 14.6-10.5 39.8-18.6 56-4.9 9.9-15.6 27.2-17.1 27.8-.5.2-.7.8-.3 1.3.3.5.1.9-.5.9-.5 0-1.3.9-1.6 2-.4 1.1-1.1 1.8-1.6 1.5-.5-.4-.9-.1-.9.6 0 2.5-24.2 28.4-25.4 27.2-.3-.4-.6-.1-.6.5s-3.7 4-8.2 7.5c-29 22.6-59 35.6-97.3 42.2-14.2 2.4-44.1 2.4-60.5 0-5.4-.8-14.8-2.7-20.5-4.2-3.3-.8-6.4-1.6-7-1.7-3.4-.7-17.6-5.9-18.1-6.7-.3-.5-.9-.7-1.4-.4-.9.6-28.3-12.8-31.1-15.2-1.3-1.1-1.9-.9-3.7 1.2-1.2 1.4-2 2.5-1.7 2.5.3 0-1.2 2.2-3.2 4.9-2.1 2.7-7.2 9.7-11.3 15.6-4.1 6-7.9 11.3-8.5 11.9-.5.6-1.1 1.6-1.2 2.2-.3 1.8 29.9 18.6 37.7 20.9 1.4.4 3.1 1.2 3.9 1.8.7.6 1.8 1.2 2.5 1.3.6.1 6.3 2 12.6 4.2 18.6 6.4 39.9 10.8 61.5 12.8 5.4.4 35.2.5 39 0 1.7-.2 5.7-.7 9-1.1 10.3-1.2 11.9-1.4 17.5-2.5 3-.6 6.6-1.4 8-1.6 10.4-2 37.2-10.6 47-15.1 15.8-7.2 30.5-15.4 42.8-23.9 3.5-2.4 6.7-4.4 7.2-4.4.4 0 1-.3 1.2-.8.2-.4 3.7-3.5 7.8-6.9 4.1-3.3 9.2-7.7 11.3-9.6 2-1.9 3.7-3.3 3.7-3.1 0 .2 2.7-2.6 6-6.1 3.3-3.5 6-6.2 6-5.8 0 .3 1-.8 2.3-2.5 1.2-1.7 5.3-6.8 9-11.4 3.8-4.6 7.4-9 8-9.8.7-.8 2.8-4 4.7-7 1.9-3 3.7-5.7 4-6 1.5-1.4 11.1-18.8 15.7-28.5 10-21.2 17-43.3 20.7-65 .8-5 1.8-10.8 2.1-13 .4-2.2.8-14.8 1-28 .3-19.9 0-26.2-1.6-37-2.5-16.5-7.8-38.7-11.6-48.5-.4-.8-.7-1.7-.8-2-.1-.3-.5-1.4-1-2.5-.4-1.1-1.9-4.9-3.3-8.5-6.4-16.8-26.1-50.6-36.4-62.5-10.5-12.1-12.8-14.9-12.8-15.7 0-.5-.3-.7-.7-.5-.5.2-2.4-1.5-4.3-3.9-1.9-2.3-3.8-4.3-4.1-4.3-.3-.1-3.1-2.5-6.1-5.4-7.7-7.2-11.9-10.7-12.7-10.7-.5 0-1.6-.9-2.6-2-2.6-2.8-25.3-17.9-35-23.2-19.8-10.9-48.2-21.4-68-25.3-22.2-4.3-33-5.5-53-5.5-17.5 0-24.9.6-40 3-26.3 4.3-48.2 11.2-72.4 22.8-4.7 2.3-8.7 3.9-9 3.7-.4-.2-1.5-2.1-2.6-4.2s-2.2-4-2.5-4.3c-.4-.3-5.7-9.1-12-19.5-12.9-21.6-12.8-21.3-13.5-19.4z"/><path d="M180.8 185.5c-.1.2-3.2.6-6.8 1-3.6.4-9.1 1.5-12.2 2.5-3.1 1-6 1.5-6.3 1.2-.3-.3-.5-.1-.5.4 0 .6-1.7 1.6-3.7 2.4-4.2 1.5-10.5 5.7-14.9 9.8-.8.7-1.4 1-1.4.6s-1.3.9-2.9 2.9c-1.5 2-3.1 3.4-3.5 3-.3-.3-.6-.1-.6.5 0 .7-1.6 3.4-3.5 6.1-5.5 7.7-10.8 20.9-11.9 30.1-.3 1.9-.5 3.5-.6 3.5-.1 0-.3 1.9-.5 4.2-.3 2.9 0 4.3.8 4.4 1.7.1 33.9.1 35.8 0 .8-.1 1.6-1.1 1.6-2.4.8-13.9 8.3-26.1 19.2-31 3.5-1.6 6.6-2.1 13.1-2.1 10.1 0 16 2.2 21.8 8.1 5.9 6.1 7.7 11.2 7.6 21.8-.1 4.9-.4 9.7-.7 10.5-.3.8-.8 2.6-1.3 4-1.5 4.9-8.5 18-9.6 18-.6 0-.9.3-.5.6.7.7-7.1 11.4-8.4 11.4-.5 0-.9.6-.9 1.3 0 .7-6.1 7.5-13.5 15.2-7.5 7.7-15.4 15.9-17.6 18.2-2.2 2.4-4.5 4.3-5.1 4.3-.6 0-.8.3-.5.7.4.3-.8 1.7-2.5 3-1.8 1.2-3 2.3-2.7 2.3.3 0-9.2 10-21.1 22.1l-21.7 22.2v8.6c0 4.7.4 8.8.8 9.1.5.4 142.7.5 146.2.1.4-.1.7-8.2.7-18 0-13.4-.3-18-1.2-18.3-.7-.2-18-.3-38.5-.3l-37.2.1 1.7-2.8c.9-1.6 4.3-5.3 7.4-8.3 3.2-3 5.5-5.5 5.1-5.5-.3 0 1.1-1.4 3.2-3 2.1-1.7 3.5-3 3.2-3-.4 0 1.7-2.4 4.6-5.4 18.6-19 32.6-37.6 39.9-52.8 8.8-18.6 11.8-36.7 8.3-51.3-.4-1.7-.8-3.5-.9-4-.2-.6-.8-2.1-1.4-3.5-.5-1.4-1.3-3.2-1.6-4-.6-1.6-3.3-5.9-8-13.1-1.6-2.4-5.3-6.4-8.2-8.9-11.5-9.5-23.6-14.6-37.8-15.6-4.4-.3-8.6-.7-9.3-.9-.6-.2-1.3-.2-1.5 0zM369 186c-3 .4-4.1 1.4-7.7 7-2.4 3.6-4.7 6.6-5.3 6.8-.6.2-.8.7-.5 1.2.3.5-.1 1.4-.8 2.2-.7.7-10.2 14.6-21.2 30.8-10.9 16.2-20.2 29.6-20.7 29.8-.4.2-.8.8-.8 1.4 0 1.1-6.8 10.9-8.5 12-.5.4-.7.8-.3.8.3 0-6.3 10.2-14.8 22.7L273 323.5l.2 18.4.3 18.4H367v21.9c0 12 .3 21.8.8 21.9.4 0 9.1.1 19.3.2l18.5.2-.1-20.5c0-11.3.1-21.3.3-22.2.3-1.4 1.6-1.6 8.4-1.5 4.4.1 8.5-.1 9.1-.5.8-.5 1.2-6 1.3-18.3.1-15.4-.1-17.5-1.5-17.6-.9-.1-5.2-.1-9.6-.1l-8 .1v-69c.1-37.9-.2-68.9-.5-69-2.8-.3-33.3-.3-36 .1zm-2.5 102.1V323H360c-3.6.1-14.7.2-24.8.3-10 .1-18.2 0-18.2-.3 0-.4 10.2-15.8 12.3-18.5 3.3-4.3 13.5-19.5 13.2-19.5-.3 0 .5-1.2 1.8-2.6 1.2-1.4 2-2.7 1.7-2.9-.3-.2.2-1 1.1-1.7.9-.7 5.3-6.8 9.9-13.6 4.5-6.8 8.5-12 8.9-11.7.3.4.6 16.4.6 35.6zM137.6 449.6c-.3.7-2.4 2.7-4.7 4.4-2.3 1.6-3.9 3-3.5 3 .3 0-1.1 1.5-3.2 3.4s-6.3 5.9-9.5 8.9c-3.1 3.1-5.7 5.4-5.7 5.1 0-.2-1.9 1.7-4.1 4.1l-4.2 4.5 4.9 4.3c2.6 2.3 5.9 5.1 7.3 6.2 1.4 1 2.9 2.4 3.3 3 .7.9 5.8-3.8 8.3-7.7 4.1-6.4 8.3-11.7 8.8-11.1.4.3.7.1.7-.6 0-1.4 8.4-12.9 10.8-14.9.9-.6 1.2-1.2.8-1.2-.5 0-.3-.7.4-1.5 1.1-1.3.9-1.9-1.1-3.2-1.3-1-3.8-3.1-5.6-4.8-2.2-2.2-3.4-2.8-3.7-1.9z"/></svg>