<?xml version="1.0" encoding="UTF-8" standalone="no"?>
<!-- Created with Inkscape (http://www.inkscape.org/) -->
<svg
   xmlns:a="http://ns.adobe.com/AdobeSVGViewerExtensions/3.0/"
   xmlns:dc="http://purl.org/dc/elements/1.1/"
   xmlns:cc="http://creativecommons.org/ns#"
   xmlns:rdf="http://www.w3.org/1999/02/22-rdf-syntax-ns#"
   xmlns:svg="http://www.w3.org/2000/svg"
   xmlns="http://www.w3.org/2000/svg"
   xmlns:xlink="http://www.w3.org/1999/xlink"
   xmlns:sodipodi="http://sodipodi.sourceforge.net/DTD/sodipodi-0.dtd"
   xmlns:inkscape="http://www.inkscape.org/namespaces/inkscape"
   version="1.0"
   width="48pt"
   height="48pt"
   viewBox="0 0 256 256"
   id="svg2"
   xml:space="preserve"
   sodipodi:version="0.32"
   inkscape:version="0.46"
   sodipodi:docname="Nuvola_Ugandan_flag.svg"
   sodipodi:docbase="/home/federico/Desktop/Flags"
   inkscape:output_extension="org.inkscape.output.svg.inkscape"><metadata
   id="metadata45"><rdf:RDF><cc:Work
       rdf:about=""><dc:format>image/svg+xml</dc:format><dc:type
         rdf:resource="http://purl.org/dc/dcmitype/StillImage" /></cc:Work></rdf:RDF></metadata><sodipodi:namedview
   inkscape:window-height="723"
   inkscape:window-width="882"
   inkscape:pageshadow="2"
   inkscape:pageopacity="0.0"
   guidetolerance="10.0"
   gridtolerance="10.0"
   objecttolerance="10.0"
   borderopacity="1.0"
   bordercolor="#666666"
   pagecolor="#ffffff"
   id="base"
   inkscape:zoom="5.86"
   inkscape:cx="61.53309"
   inkscape:cy="37.836074"
   inkscape:window-x="0"
   inkscape:window-y="26"
   inkscape:current-layer="svg2"
   showgrid="false" /><defs
   id="defs271"><inkscape:perspective
     sodipodi:type="inkscape:persp3d"
     inkscape:vp_x="0 : 30 : 1"
     inkscape:vp_y="0 : 1000 : 0"
     inkscape:vp_z="60 : 30 : 1"
     inkscape:persp3d-origin="30 : 20 : 1"
     id="perspective27" /><linearGradient
     x1="87.396973"
     y1="141.97266"
     x2="240.94727"
     y2="141.97266"
     id="XMLID_22_"
     gradientUnits="userSpaceOnUse"
     gradientTransform="matrix(1.567692,0,0,1.567692,-129.3706,-94.56783)">
								<stop
   style="stop-color:#ffffff;stop-opacity:0.46956521;"
   offset="0"
   id="stop139" />

								<stop
   style="stop-color:#d7d7d7;stop-opacity:0.21875"
   offset="0.24074516"
   id="stop143" />
								<stop
   style="stop-color:#4d4d4d;stop-opacity:0"
   offset="0.4585622"
   id="stop145" /><stop
   style="stop-color:#ffffff;stop-opacity:0.47058824;"
   offset="0.71891773"
   id="stop3696" /><stop
   style="stop-color:#f2f2f2;stop-opacity:0.40000001"
   offset="0.87351298"
   id="stop2807" /><stop
   style="stop-color:#ffffff;stop-opacity:0.62352943"
   offset="1"
   id="stop3694" />


								<a:midPointStop
   style="stop-color:#E9E9EF"
   offset="0" />
								<a:midPointStop
   style="stop-color:#E9E9EF"
   offset="0.5" />
								<a:midPointStop
   style="stop-color:#B1B1C5"
   offset="0.157303" />
								<a:midPointStop
   style="stop-color:#B1B1C5"
   offset="0.5" />
								<a:midPointStop
   style="stop-color:#CECEDB"
   offset="0.314607" />
								<a:midPointStop
   style="stop-color:#CECEDB"
   offset="0.5" />
								<a:midPointStop
   style="stop-color:#FFFFFF"
   offset="0.65" />
								<a:midPointStop
   style="stop-color:#FFFFFF"
   offset="0.5" />
								<a:midPointStop
   style="stop-color:#CECEDB"
   offset="0.837079" />
								<a:midPointStop
   style="stop-color:#CECEDB"
   offset="0.5" />
								<a:midPointStop
   style="stop-color:#FFFF66"
   offset="1" />
							</linearGradient><linearGradient
     id="linearGradient25883"><stop
       id="stop25885"
       offset="0"
       style="stop-color:#ffffff;stop-opacity:1;" /><stop
       id="stop25887"
       offset="1"
       style="stop-color:#df0018;stop-opacity:1;" /></linearGradient><inkscape:perspective
     id="perspective2832"
     inkscape:persp3d-origin="450 : 200 : 1"
     inkscape:vp_z="900 : 300 : 1"
     inkscape:vp_y="0 : 1000 : 0"
     inkscape:vp_x="0 : 300 : 1"
     sodipodi:type="inkscape:persp3d" /><linearGradient
     inkscape:collect="always"
     xlink:href="#XMLID_22_"
     id="linearGradient3036"
     gradientUnits="userSpaceOnUse"
     gradientTransform="matrix(1.567692,0,0,1.567692,-129.3714,-94.56962)"
     x1="87.396973"
     y1="141.97266"
     x2="269.33331"
     y2="141.97276" /><linearGradient
     inkscape:collect="always"
     xlink:href="#XMLID_22_"
     id="linearGradient4384"
     gradientUnits="userSpaceOnUse"
     gradientTransform="matrix(1.567692,0,0,1.567692,-129.3714,-94.56962)"
     x1="87.396973"
     y1="141.97266"
     x2="269.33331"
     y2="141.97276" /><linearGradient
     inkscape:collect="always"
     xlink:href="#XMLID_22_"
     id="linearGradient4387"
     gradientUnits="userSpaceOnUse"
     gradientTransform="matrix(1.567692,0,0,1.567692,-129.56918,-95.332514)"
     x1="87.396973"
     y1="141.97266"
     x2="269.33331"
     y2="141.97276" /><inkscape:perspective
     id="perspective2954"
     inkscape:persp3d-origin="450 : 200 : 1"
     inkscape:vp_z="900 : 300 : 1"
     inkscape:vp_y="0 : 1000 : 0"
     inkscape:vp_x="0 : 300 : 1"
     sodipodi:type="inkscape:persp3d" /><linearGradient
     gradientUnits="userSpaceOnUse"
     id="linearGradient6742"
     y2="108.1361"
     x2="126.18921"
     y1="38.575397"
     x1="126.18921"
     gradientTransform="matrix(1.567692,0,0,1.567692,-69.82581,15.22741)">
								<stop
   id="stop6744"
   offset="0"
   style="stop-color:#f00000;stop-opacity:1;" />
								<stop
   id="stop6746"
   offset="0.10026827"
   style="stop-color:#f00000;stop-opacity:1;" />
								<stop
   id="stop6748"
   offset="0.15960093"
   style="stop-color:#ff8000;stop-opacity:1;" />
								<stop
   id="stop6750"
   offset="0.29677647"
   style="stop-color:#ff8000;stop-opacity:1;" />
								<stop
   id="stop6752"
   offset="0.35825124"
   style="stop-color:#ffff00;stop-opacity:1;" /><stop
   style="stop-color:#ffff00;stop-opacity:1;"
   offset="0.48705581"
   id="stop5179" /><stop
   id="stop5181"
   offset="0.54412884"
   style="stop-color:#007940;stop-opacity:1;" /><stop
   style="stop-color:#007940;stop-opacity:1;"
   offset="0.67490226"
   id="stop5183" /><stop
   id="stop5185"
   offset="0.74168122"
   style="stop-color:#4040ff;stop-opacity:1;" /><stop
   style="stop-color:#4040ff;stop-opacity:1;"
   offset="0.87041879"
   id="stop5187" /><stop
   id="stop5189"
   offset="0.93114763"
   style="stop-color:#a000c0;stop-opacity:1;" />
								<stop
   id="stop6754"
   offset="1"
   style="stop-color:#a000c0;stop-opacity:1;" />
								<a:midPointStop
   offset="0"
   style="stop-color:#CF0000" />
								<a:midPointStop
   offset="0.5"
   style="stop-color:#CF0000" />
								<a:midPointStop
   offset="0.157303"
   style="stop-color:#7C0000" />
								<a:midPointStop
   offset="0.5"
   style="stop-color:#7C0000" />
								<a:midPointStop
   offset="0.314607"
   style="stop-color:#CF0000" />
								<a:midPointStop
   offset="0.5"
   style="stop-color:#CF0000" />
								<a:midPointStop
   offset="0.65"
   style="stop-color:#B80000" />
								<a:midPointStop
   offset="0.5"
   style="stop-color:#B80000" />
								<a:midPointStop
   offset="0.837079"
   style="stop-color:#CF0000" />
								<a:midPointStop
   offset="0.5"
   style="stop-color:#CF0000" />
								<a:midPointStop
   offset="1"
   style="stop-color:#FF0000" />
							</linearGradient><linearGradient
     y2="123.21392"
     x2="132.62358"
     y1="151.1393"
     x1="133.17909"
     gradientTransform="translate(306.93733,-90.754533)"
     gradientUnits="userSpaceOnUse"
     id="linearGradient3457"
     xlink:href="#XMLID_17_"
     inkscape:collect="always" /><linearGradient
     y2="123.21392"
     x2="132.62358"
     y1="151.1393"
     x1="133.17909"
     gradientTransform="translate(272.28312,-30.895163)"
     gradientUnits="userSpaceOnUse"
     id="linearGradient3449"
     xlink:href="#XMLID_17_"
     inkscape:collect="always" /><linearGradient
     gradientTransform="translate(272.28312,-30.895163)"
     y2="123.21392"
     x2="132.62358"
     y1="151.1393"
     x1="133.17909"
     gradientUnits="userSpaceOnUse"
     id="linearGradient2436"
     xlink:href="#XMLID_17_"
     inkscape:collect="always" /><linearGradient
     gradientUnits="userSpaceOnUse"
     y2="123.21392"
     x2="132.62358"
     y1="151.1393"
     x1="133.17909"
     id="linearGradient7085"
     xlink:href="#XMLID_17_"
     inkscape:collect="always" /><linearGradient
     x1="126.18921"
     y1="39.617504"
     x2="126.18921"
     y2="112.30453"
     id="XMLID_17_"
     gradientUnits="userSpaceOnUse"
     gradientTransform="matrix(1.567692,0,0,1.567692,-69.82581,15.22741)">
								<stop
   style="stop-color:#c200be;stop-opacity:1;"
   offset="0"
   id="stop18" />
								<stop
   style="stop-color:#c200be;stop-opacity:1;"
   offset="0.19460699"
   id="stop20" />
								<stop
   style="stop-color:#1000ae;stop-opacity:1;"
   offset="0.31460699"
   id="stop22" />
								<stop
   style="stop-color:#1000ae;stop-opacity:1;"
   offset="0.72999996"
   id="stop24" />
								<stop
   style="stop-color:#00dab6;stop-opacity:1;"
   offset="0.85707897"
   id="stop26" />
								<stop
   style="stop-color:#00dab6;stop-opacity:1;"
   offset="1"
   id="stop28" />
								<a:midPointStop
   style="stop-color:#CF0000"
   offset="0" />
								<a:midPointStop
   style="stop-color:#CF0000"
   offset="0.5" />
								<a:midPointStop
   style="stop-color:#7C0000"
   offset="0.157303" />
								<a:midPointStop
   style="stop-color:#7C0000"
   offset="0.5" />
								<a:midPointStop
   style="stop-color:#CF0000"
   offset="0.314607" />
								<a:midPointStop
   style="stop-color:#CF0000"
   offset="0.5" />
								<a:midPointStop
   style="stop-color:#B80000"
   offset="0.65" />
								<a:midPointStop
   style="stop-color:#B80000"
   offset="0.5" />
								<a:midPointStop
   style="stop-color:#CF0000"
   offset="0.837079" />
								<a:midPointStop
   style="stop-color:#CF0000"
   offset="0.5" />
								<a:midPointStop
   style="stop-color:#FF0000"
   offset="1" />
							</linearGradient><linearGradient
     gradientTransform="matrix(1.567692,0,0,1.567692,-129.3706,-94.56783)"
     gradientUnits="userSpaceOnUse"
     id="linearGradient4218"
     y2="141.97266"
     x2="240.94727"
     y1="141.97266"
     x1="87.396973">
								<stop
   id="stop4220"
   offset="0"
   style="stop-color:#ffffff;stop-opacity:0.66666675" />

								<stop
   id="stop4222"
   offset="0.24074516"
   style="stop-color:#d7d7d7;stop-opacity:0.21875" />
								<stop
   id="stop4224"
   offset="0.4585622"
   style="stop-color:#4d4d4d;stop-opacity:0" /><stop
   id="stop4226"
   offset="0.71891773"
   style="stop-color:#ffffff;stop-opacity:0.51041669" /><stop
   id="stop4228"
   offset="0.87351298"
   style="stop-color:#f2f2f2;stop-opacity:0.40000001" /><stop
   id="stop4230"
   offset="1"
   style="stop-color:#ffffff;stop-opacity:0.62352943" />


								<a:midPointStop
   offset="0"
   style="stop-color:#E9E9EF" />
								<a:midPointStop
   offset="0.5"
   style="stop-color:#E9E9EF" />
								<a:midPointStop
   offset="0.157303"
   style="stop-color:#B1B1C5" />
								<a:midPointStop
   offset="0.5"
   style="stop-color:#B1B1C5" />
								<a:midPointStop
   offset="0.314607"
   style="stop-color:#CECEDB" />
								<a:midPointStop
   offset="0.5"
   style="stop-color:#CECEDB" />
								<a:midPointStop
   offset="0.65"
   style="stop-color:#FFFFFF" />
								<a:midPointStop
   offset="0.5"
   style="stop-color:#FFFFFF" />
								<a:midPointStop
   offset="0.837079"
   style="stop-color:#CECEDB" />
								<a:midPointStop
   offset="0.5"
   style="stop-color:#CECEDB" />
								<a:midPointStop
   offset="1"
   style="stop-color:#FFFF66" />
							</linearGradient><inkscape:perspective
     id="perspective4215"
     inkscape:persp3d-origin="30 : 20 : 1"
     inkscape:vp_z="60 : 30 : 1"
     inkscape:vp_y="0 : 1000 : 0"
     inkscape:vp_x="0 : 30 : 1"
     sodipodi:type="inkscape:persp3d" /><linearGradient
     inkscape:collect="always"
     xlink:href="#linearGradient6742"
     id="linearGradient4271"
     gradientUnits="userSpaceOnUse"
     gradientTransform="matrix(1.567692,0,0,1.567692,-69.82581,271.22741)"
     x1="126.18921"
     y1="39.617504"
     x2="126.18921"
     y2="112.30453" /><linearGradient
     inkscape:collect="always"
     xlink:href="#linearGradient6742"
     id="linearGradient5191"
     gradientUnits="userSpaceOnUse"
     gradientTransform="matrix(1.567692,0,0,1.567692,-69.82581,15.22741)"
     x1="126.18921"
     y1="24.509726"
     x2="129.44319"
     y2="116.34281" /></defs>






<polyline
   style="fill:none"
   points="0,256 0,0 256,0 256,256 "
   id="_x3C_Slice_x3E_" /><path
   d="M 248.36055,32.472022 C 167.27229,-10.429768 86.18327,85.849332 5.09502,40.005058 C 2.28113,38.417463 2e-05,39.212792 2e-05,42.029738 C 2e-05,99.343119 2e-05,156.65726 2e-05,213.97064 C 2e-05,216.78146 2.28113,220.54913 5.09502,222.13519 C 87.03142,268.46019 168.96859,169.6711 250.90499,215.99533 C 253.71887,217.58215 255.99999,216.78759 255.99999,213.97064 C 255.99999,156.65726 255.99999,99.343119 255.99999,42.029738 C 255.99999,39.218915 253.71887,35.452015 250.90499,33.864421 C 250.05685,33.385234 249.2087,32.921355 248.36055,32.472022 z"
   style="fill:#333333;fill-opacity:1"
   id="path2408" /><path
   d="M 248.36055,37.567021 C 248.36055,39.421 233.46901,27.361714 211.05133,26.512802 C 188.63516,24.161264 158.69592,33.018571 128.59899,41.939411 C 98.50206,50.838819 68.2505,59.830085 45.21048,57.499214 C 22.17046,56.646475 6.34274,44.472367 5.09502,45.100057 C 5.09502,49.976129 5.09502,212.16336 5.09502,217.04096 C 6.32973,216.23874 22.00205,228.52232 44.89281,229.4363 C 67.78279,231.83529 97.89198,222.86699 128.00038,213.92855 C 158.10957,204.99929 188.21874,196.07231 211.10797,198.49122 C 233.99872,199.42357 249.67104,211.70178 250.90499,210.90033 C 250.90499,206.02272 250.90499,43.835492 250.90499,38.95942 C 249.63124,38.236811 248.36055,37.567021 248.36055,37.567021 z"
   style="fill:#006233;fill-opacity:1"
   id="path2410" /><path
   id="path30"
   style="fill:url(#linearGradient5191);fill-opacity:1"
   d="M 248.36055,37.56702 C 248.36055,39.421 233.46901,27.36171 211.05133,26.5128 C 188.63516,24.16126 158.69592,33.01857 128.59899,41.93941 C 98.502062,50.83882 68.2505,59.83008 45.210481,57.49921 C 22.170459,56.64648 6.3427413,44.47237 5.0950169,45.10006 C 5.0950169,49.97613 5.0950169,212.16336 5.0950169,217.04096 C 6.3297279,216.23874 22.002055,228.52232 44.892808,229.4363 C 67.782795,231.83529 97.891978,222.86699 128.00038,213.92855 C 158.10957,204.99929 188.21874,196.07231 211.10797,198.49122 C 233.99872,199.42357 249.67104,211.70178 250.90499,210.90033 C 250.90499,206.02272 250.90499,43.83549 250.90499,38.95942 C 249.63124,38.23681 248.36055,37.56702 248.36055,37.56702 z" /><path
   d="M 7.6425164,49.13343 C 7.6425164,63.50453 7.6425164,77.87563 7.6425164,92.24673 C 87.881857,135.10191 168.12198,40.37522 248.36055,83.23426 C 248.36055,68.86317 248.36055,54.49207 248.36055,40.12097 C 168.12044,-2.73807 87.881857,91.98938 7.6425164,49.13343 z"
   style="fill:#f00000;fill-opacity:1"
   id="path4275" /><path
   id="path5047"
   style="fill:#ff8000;fill-opacity:1"
   d="M 7.6425164,74.733429 C 7.6425164,89.104534 7.6425164,103.47563 7.6425164,117.84672 C 87.881857,160.7019 168.12198,65.975219 248.36055,108.83426 C 248.36055,94.463167 248.36055,80.092069 248.36055,65.720969 C 168.12044,22.86193 87.881857,117.58937 7.6425164,74.733429 z" /><path
   d="M 7.6425164,102.89344 C 7.6425164,117.26454 7.6425164,131.63563 7.6425164,146.00672 C 87.881857,188.8619 168.12198,94.135219 248.36055,136.99426 C 248.36055,122.62317 248.36055,108.25208 248.36055,93.880969 C 168.12044,51.02193 87.881857,145.74937 7.6425164,102.89344 z"
   style="fill:#ffff00;fill-opacity:1"
   id="path5069" /><path
   id="path75"
   style="fill:#007940;fill-opacity:1"
   d="M 7.6425164,130.42585 C 7.6425164,144.79695 7.6425164,159.16804 7.6425164,173.53914 C 87.881857,216.39431 168.12198,121.66764 248.36055,164.52667 C 248.36055,150.15559 248.36055,135.78449 248.36055,121.41339 C 168.12044,78.554308 87.881857,173.28179 7.6425164,130.42585 z" /><path
   d="M 7.6425164,158.58586 C 7.6425164,172.95696 7.6425164,187.32805 7.6425164,201.69915 C 87.881857,244.55432 168.12198,149.82765 248.36055,192.68668 C 248.36055,178.3156 248.36055,163.9445 248.36055,149.5734 C 168.12044,106.71432 87.881857,201.4418 7.6425164,158.58586 z"
   style="fill:#4040ff;fill-opacity:1"
   id="path5083" /><path
   d="M 7.6425164,186.74532 C 7.6425164,201.11642 7.6425164,201.51267 7.6425164,215.88377 C 87.881857,258.73896 168.12198,164.01226 248.36055,206.8713 C 248.36055,192.50021 248.36055,191.65582 248.36055,177.28472 C 168.12044,134.42565 87.881857,229.60127 7.6425164,186.74532 z"
   style="fill:#a000c0;fill-opacity:1"
   id="path5085"
   sodipodi:nodetypes="ccccc" /><path
   id="path3186"
   style="fill:url(#linearGradient4387)"
   d="M 248.16197,206.19712 C 167.92185,163.74543 87.681735,257.57424 7.4423849,215.12255 C 7.4423849,159.50777 7.4423849,103.8922 7.4423849,48.276649 C 87.681735,90.727569 167.92185,-3.100471 248.16197,39.351979 C 248.16197,94.966769 248.16197,150.58234 248.16197,206.19712 z" /></svg>
