<svg viewBox="0 0 492.8 127.99" xmlns="http://www.w3.org/2000/svg"><path d="m398.3 102.93-9 8.44q2.19 2.05 4.57 3.89l7.42-9.79q-1.53-1.22-2.99-2.54zm33.06-97.81a61.15 61.15 0 0 0 -28.84 7.18l-7.52-12.3-6.72 27.51 27.51 6.72-6.93-11.4a48.89 48.89 0 0 1 20.77-5.39v5.44h3.37v-5.44a49.15 49.15 0 0 1 47.42 47h-5.42v3.36h5.46a49.15 49.15 0 0 1 -75.53 40.2l-7.11 10a61.44 61.44 0 1 0 33.54-112.88zm-369.44 87.62h9.86v-37.8h-9.86zm-35.24-21.42a14.42 14.42 0 0 0 4.14-2.92 15.51 15.51 0 0 0 3.85-5.9 19.68 19.68 0 0 0 1.33-7 16.56 16.56 0 0 0 -1.66-7.31 16.36 16.36 0 0 0 -4.68-5.8 15 15 0 0 0 -6.23-2.92 34.67 34.67 0 0 0 -6.95-.68h-16.48v9.31h16.42a12.83 12.83 0 0 1 3.6.5 9.37 9.37 0 0 1 3.06 1.51 7.38 7.38 0 0 1 2.12 2.56 7.9 7.9 0 0 1 .8 3.64 8.38 8.38 0 0 1 -.76 3.69 7.17 7.17 0 0 1 -2.05 2.56 8.89 8.89 0 0 1 -3.06 1.51 13.42 13.42 0 0 1 -3.71.5h-11.42l19.41 28.17h12.09l-14.61-19.87a28.1 28.1 0 0 0 4.79-1.55zm18.1 21.42h9.86v-37.8h-9.86zm53.12-44.95a23 23 0 0 1 11.46-3 23.71 23.71 0 0 1 10.39 2.27 22.3 22.3 0 0 1 8.1 6.66l4.08-3.13a25.39 25.39 0 0 0 -9.56-8 29.28 29.28 0 0 0 -13.08-2.87q-12 0-20 7.75a25.62 25.62 0 0 0 -8 19.11 27.26 27.26 0 0 0 6.66 18.42q7.84 9 21.41 9a30.28 30.28 0 0 0 12.92-2.69 26.06 26.06 0 0 0 9.65-7.61l-4.08-3.09a23 23 0 0 1 -18.18 8.51 22.48 22.48 0 0 1 -16.37-6.33 21.15 21.15 0 0 1 -6.48-15.79 22.08 22.08 0 0 1 2.9-11.27 21.32 21.32 0 0 1 8.18-7.94zm61.7 5.71a18.94 18.94 0 0 0 -14.69 6.43 20.49 20.49 0 0 0 .3 27.79 20.22 20.22 0 0 0 28.74 0 20.54 20.54 0 0 0 .3-27.83 18.94 18.94 0 0 0 -14.65-6.39zm12.93 28.05a14.25 14.25 0 0 1 -5.43 5.54 15.45 15.45 0 0 1 -15 0 14.24 14.24 0 0 1 -5.43-5.54 15.55 15.55 0 0 1 -2-7.73 15.16 15.16 0 0 1 4.41-11 14.52 14.52 0 0 1 21.08 0 15.13 15.13 0 0 1 4.43 11 15.56 15.56 0 0 1 -2.06 7.74zm206.47-41.27h-4.92v14.2h-6.68v4.25h6.71v34h4.89v-34h7.8v-4.24h-7.8zm-69.15 20.64a18.87 18.87 0 0 0 -15.62-7.42 18.27 18.27 0 0 0 -15.17 7.24 20.45 20.45 0 0 0 -4.47 13 20.69 20.69 0 0 0 5.28 13.87q5.28 6.14 14.64 6.13a21 21 0 0 0 7.57-1.28 18.7 18.7 0 0 0 6-3.74 22.62 22.62 0 0 0 4.72-6.47l-4.14-2.25a22.94 22.94 0 0 1 -4.19 5.43 15 15 0 0 1 -4.7 2.7 16.34 16.34 0 0 1 -5.68 1 13.58 13.58 0 0 1 -10.17-4.26 15.56 15.56 0 0 1 -4.27-10.87h34.42a20.72 20.72 0 0 0 -4.22-13.08zm-29.7 8.82a16.37 16.37 0 0 1 4.47-7.91 14 14 0 0 1 9.68-3.62 15.26 15.26 0 0 1 6.51 1.44 13.58 13.58 0 0 1 5 3.8 16.32 16.32 0 0 1 2.87 6.29zm-64.64-14.06a13.56 13.56 0 0 0 -7.61-2.18 16.07 16.07 0 0 0 -7.8 2 20.57 20.57 0 0 0 -6.54 5.89v-6.9h-4.92v38.25h4.92v-14a50.82 50.82 0 0 1 .7-10.41 13.83 13.83 0 0 1 4.66-7.33 12.14 12.14 0 0 1 8-3 9.91 9.91 0 0 1 6.33 2 9.69 9.69 0 0 1 3.28 5.71 45 45 0 0 1 .55 8.82v18.21h4.92v-19.74q0-7.8-1.58-11.5a13 13 0 0 0 -4.91-5.82zm127.16 2.46a16.35 16.35 0 0 1 13.8 6.71l3.9-2.43a16.46 16.46 0 0 0 -4.18-4.75 20.38 20.38 0 0 0 -6-3 23.35 23.35 0 0 0 -7.33-1.16 22.41 22.41 0 0 0 -10.93 2.67 19.69 19.69 0 0 0 -7.68 7.44 20 20 0 0 0 -2.79 10.32 18.75 18.75 0 0 0 6 14 20.8 20.8 0 0 0 15 5.77 23.53 23.53 0 0 0 10.54-2.27 18.43 18.43 0 0 0 7.37-6.44l-3.9-2.57a17.63 17.63 0 0 1 -22.07 4.68 14.89 14.89 0 0 1 -5.83-5.72 15.5 15.5 0 0 1 -2.12-7.87 14.67 14.67 0 0 1 4.62-10.92 16 16 0 0 1 11.6-4.46zm-83.25-2.46a13.56 13.56 0 0 0 -7.61-2.18 16.07 16.07 0 0 0 -7.8 2 20.57 20.57 0 0 0 -6.54 5.89v-6.9h-4.92v38.25h4.92v-14a50.83 50.83 0 0 1 .7-10.41 13.83 13.83 0 0 1 4.66-7.33 12.14 12.14 0 0 1 8-3 9.91 9.91 0 0 1 6.33 2 9.69 9.69 0 0 1 3.28 5.71 45 45 0 0 1 .55 8.82v18.21h4.92v-19.74q0-7.8-1.58-11.5a13 13 0 0 0 -4.91-5.82zm193.51-16-22.39 33.32v9.11h22.57v10.63h9.63v-10.62h4.61v-9.12h-4.61v-33.28zm.19 33.32h-11.82l11.81-17.33zm-46.83-1.3-16 16.3v4.71h35.82v-9.08h-18.43l5.8-6.12q7-7.24 9.58-12.55a22.54 22.54 0 0 0 2.63-9.96 15.06 15.06 0 0 0 -2.16-7.61 14.89 14.89 0 0 0 -5.77-5.73 18.57 18.57 0 0 0 -20.76 2.86q-4.87 4.8-5.26 13.17h9.6a9.77 9.77 0 0 1 2.25-6.4 6.79 6.79 0 0 1 5.27-2.36 7 7 0 0 1 5.12 2 6.64 6.64 0 0 1 2 4.94 13.9 13.9 0 0 1 -1.98 6.4q-1.91 3.57-7.71 9.44z" fill="#fff"/></svg>